<svg width="325" height="52" viewBox="0 0 325 52" fill="none" xmlns="http://www.w3.org/2000/svg">
<path d="M69.4987 40V38.848H70.2547C70.7587 38.848 71.1427 38.8 71.4067 38.704C71.6947 38.584 71.9347 38.356 72.1267 38.02C72.3427 37.684 72.5707 37.192 72.8107 36.544L80.8027 14.296H82.8187L90.8827 37.012C91.0747 37.54 91.2667 37.936 91.4587 38.2C91.6507 38.44 91.8907 38.608 92.1787 38.704C92.4667 38.8 92.8627 38.848 93.3667 38.848H93.9787V40H85.2307V38.848H86.2387C87.0307 38.848 87.5707 38.74 87.8587 38.524C88.1467 38.284 88.2907 37.924 88.2907 37.444C88.2907 37.228 88.2547 36.976 88.1827 36.688C88.1107 36.4 88.0267 36.112 87.9307 35.824C87.8347 35.536 87.7507 35.296 87.6787 35.104L86.3107 31.216H76.4107L75.0787 34.96C75.0067 35.176 74.9227 35.44 74.8267 35.752C74.7307 36.064 74.6347 36.376 74.5387 36.688C74.4667 36.976 74.4307 37.228 74.4307 37.444C74.4307 37.924 74.5867 38.284 74.8987 38.524C75.2347 38.74 75.8107 38.848 76.6267 38.848H77.9587V40H69.4987ZM76.9147 29.812H85.8067L83.3227 22.612C83.1067 21.94 82.8667 21.256 82.6027 20.56C82.3627 19.84 82.1347 19.144 81.9187 18.472C81.7267 17.8 81.5587 17.2 81.4147 16.672C81.3187 17.032 81.1987 17.44 81.0547 17.896C80.9347 18.328 80.7907 18.796 80.6227 19.3C80.4787 19.78 80.3107 20.284 80.1187 20.812C79.9507 21.316 79.7827 21.808 79.6147 22.288L76.9147 29.812ZM106.317 40V38.848H107.289C107.841 38.848 108.309 38.788 108.693 38.668C109.077 38.548 109.353 38.296 109.521 37.912C109.713 37.504 109.809 36.892 109.809 36.076V18.22C109.809 17.404 109.713 16.804 109.521 16.42C109.353 16.012 109.077 15.748 108.693 15.628C108.309 15.508 107.841 15.448 107.289 15.448H106.317V14.296H113.013L121.473 36.688L129.897 14.296H136.485V15.448H135.549C134.997 15.448 134.529 15.52 134.145 15.664C133.761 15.784 133.473 16.048 133.281 16.456C133.113 16.84 133.029 17.452 133.029 18.292V36.004C133.029 36.82 133.113 37.432 133.281 37.84C133.473 38.248 133.761 38.524 134.145 38.668C134.529 38.788 134.997 38.848 135.549 38.848H136.485V40H127.413V38.848H128.349C128.925 38.848 129.369 38.788 129.681 38.668C130.017 38.548 130.257 38.296 130.401 37.912C130.569 37.528 130.665 36.952 130.689 36.184V16.492L121.905 40H120.249L111.429 16.636V36.004C111.429 36.82 111.501 37.432 111.645 37.84C111.789 38.248 112.029 38.524 112.365 38.668C112.725 38.788 113.193 38.848 113.769 38.848H114.345V40H106.317ZM161.715 40.36C159.291 40.36 157.275 39.82 155.667 38.74C154.059 37.66 152.859 36.136 152.067 34.168C151.275 32.176 150.879 29.812 150.879 27.076C150.879 24.34 151.275 22 152.067 20.056C152.883 18.088 154.095 16.576 155.703 15.52C157.335 14.44 159.351 13.9 161.751 13.9C164.199 13.9 166.215 14.44 167.799 15.52C169.383 16.576 170.571 18.1 171.363 20.092C172.155 22.06 172.551 24.4 172.551 27.112C172.551 29.776 172.143 32.104 171.327 34.096C170.535 36.064 169.335 37.6 167.727 38.704C166.143 39.808 164.139 40.36 161.715 40.36ZM161.715 38.884C163.203 38.884 164.463 38.62 165.495 38.092C166.527 37.564 167.367 36.796 168.015 35.788C168.663 34.756 169.131 33.52 169.419 32.08C169.731 30.616 169.887 28.96 169.887 27.112C169.887 25.264 169.743 23.62 169.455 22.18C169.167 20.716 168.699 19.48 168.051 18.472C167.427 17.464 166.599 16.696 165.567 16.168C164.535 15.64 163.263 15.376 161.751 15.376C160.335 15.376 159.099 15.64 158.043 16.168C157.011 16.696 156.159 17.464 155.487 18.472C154.815 19.48 154.311 20.716 153.975 22.18C153.663 23.62 153.507 25.264 153.507 27.112C153.507 28.96 153.663 30.616 153.975 32.08C154.311 33.544 154.815 34.78 155.487 35.788C156.159 36.796 157.011 37.564 158.043 38.092C159.075 38.62 160.299 38.884 161.715 38.884ZM186.98 40V38.848H187.952C188.504 38.848 188.972 38.788 189.356 38.668C189.74 38.548 190.016 38.296 190.184 37.912C190.376 37.504 190.472 36.892 190.472 36.076V18.22C190.472 17.404 190.376 16.804 190.184 16.42C190.016 16.012 189.74 15.748 189.356 15.628C188.972 15.508 188.504 15.448 187.952 15.448H186.98V14.296H195.584C197.648 14.296 199.328 14.536 200.624 15.016C201.944 15.496 202.916 16.228 203.54 17.212C204.164 18.196 204.476 19.48 204.476 21.064C204.476 22.384 204.212 23.512 203.684 24.448C203.18 25.384 202.52 26.14 201.704 26.716C200.888 27.268 199.988 27.688 199.004 27.976L204.152 35.86C204.488 36.364 204.8 36.808 205.088 37.192C205.4 37.552 205.7 37.84 205.988 38.056C206.3 38.272 206.612 38.44 206.924 38.56C207.26 38.656 207.62 38.704 208.004 38.704H208.256V40H207.896C206.984 40 206.216 39.952 205.592 39.856C204.992 39.76 204.476 39.604 204.044 39.388C203.636 39.148 203.252 38.812 202.892 38.38C202.556 37.948 202.184 37.408 201.776 36.76L196.592 28.552H192.92V36.076C192.92 36.892 193.016 37.504 193.208 37.912C193.4 38.296 193.676 38.548 194.036 38.668C194.42 38.788 194.888 38.848 195.44 38.848H196.376V40H186.98ZM195.656 27.22C197.096 27.22 198.272 26.992 199.184 26.536C200.12 26.056 200.804 25.36 201.236 24.448C201.692 23.536 201.92 22.432 201.92 21.136C201.92 19.864 201.728 18.832 201.344 18.04C200.984 17.224 200.348 16.624 199.436 16.24C198.524 15.856 197.276 15.664 195.692 15.664H192.92V27.22H195.656ZM220.35 40V38.848H221.322C221.874 38.848 222.342 38.788 222.726 38.668C223.11 38.548 223.386 38.296 223.554 37.912C223.746 37.504 223.842 36.892 223.842 36.076V18.292C223.842 17.452 223.746 16.84 223.554 16.456C223.386 16.048 223.11 15.784 222.726 15.664C222.366 15.52 221.898 15.448 221.322 15.448H220.35V14.296H237.45L237.666 20.416H236.334L236.154 18.436C236.13 17.836 236.022 17.344 235.83 16.96C235.662 16.552 235.386 16.24 235.002 16.024C234.642 15.808 234.126 15.7 233.454 15.7H226.29V25.852H235.002V27.22H226.29V38.596H234.498C235.194 38.596 235.734 38.488 236.118 38.272C236.526 38.056 236.814 37.756 236.982 37.372C237.174 36.964 237.294 36.46 237.342 35.86L237.558 33.88H238.89L238.638 40H220.35ZM252.982 40V38.848H253.954C254.53 38.848 254.998 38.788 255.358 38.668C255.742 38.524 256.018 38.248 256.186 37.84C256.378 37.432 256.474 36.82 256.474 36.004V18.292C256.474 17.452 256.378 16.84 256.186 16.456C256.018 16.048 255.742 15.784 255.358 15.664C254.998 15.52 254.53 15.448 253.954 15.448H252.982V14.296H262.378V15.448H261.442C260.89 15.448 260.422 15.508 260.038 15.628C259.678 15.748 259.402 16.012 259.21 16.42C259.018 16.804 258.922 17.404 258.922 18.22V38.596H267.202C267.874 38.596 268.402 38.476 268.786 38.236C269.17 37.996 269.434 37.66 269.578 37.228C269.746 36.796 269.854 36.292 269.902 35.716L270.19 32.44H271.522L271.27 40H252.982ZM283.959 40V38.848H284.715C285.219 38.848 285.603 38.8 285.867 38.704C286.155 38.584 286.395 38.356 286.587 38.02C286.803 37.684 287.031 37.192 287.271 36.544L295.263 14.296H297.279L305.343 37.012C305.535 37.54 305.727 37.936 305.919 38.2C306.111 38.44 306.351 38.608 306.639 38.704C306.927 38.8 307.323 38.848 307.827 38.848H308.439V40H299.691V38.848H300.699C301.491 38.848 302.031 38.74 302.319 38.524C302.607 38.284 302.751 37.924 302.751 37.444C302.751 37.228 302.715 36.976 302.643 36.688C302.571 36.4 302.487 36.112 302.391 35.824C302.295 35.536 302.211 35.296 302.139 35.104L300.771 31.216H290.871L289.539 34.96C289.467 35.176 289.383 35.44 289.287 35.752C289.191 36.064 289.095 36.376 288.999 36.688C288.927 36.976 288.891 37.228 288.891 37.444C288.891 37.924 289.047 38.284 289.359 38.524C289.695 38.74 290.271 38.848 291.087 38.848H292.419V40H283.959ZM291.375 29.812H300.267L297.783 22.612C297.567 21.94 297.327 21.256 297.063 20.56C296.823 19.84 296.595 19.144 296.379 18.472C296.187 17.8 296.019 17.2 295.875 16.672C295.779 17.032 295.659 17.44 295.515 17.896C295.395 18.328 295.251 18.796 295.083 19.3C294.939 19.78 294.771 20.284 294.579 20.812C294.411 21.316 294.243 21.808 294.075 22.288L291.375 29.812Z" fill="#471D03"/>
<path d="M1 30.3479C1.00007 10.7826 10.4403 1 24.0764 1C37.7124 1 47.1528 11.8696 47.1528 30.3479" stroke="#471D03" stroke-width="2"/>
<path d="M30.3699 33.6085L31.3679 33.5443L30.3699 33.6085ZM24.0764 22.7389L24.7079 21.9635L24.1159 21.4814L23.4949 21.9254L24.0764 22.7389ZM18.8318 35.7824L19.8136 35.5929L18.8318 35.7824ZM21.2589 42.9985C21.6425 43.396 22.2755 43.4072 22.6729 43.0237C23.0704 42.6402 23.0816 42.0071 22.6981 41.6097L21.2589 42.9985ZM23.4949 21.9254C21.1382 23.6099 19.4299 25.6549 18.4622 28.0419C17.4942 30.4299 17.2944 33.094 17.8499 35.9719L19.8136 35.5929C19.3202 33.036 19.5137 30.7716 20.3157 28.7932C21.1182 26.8138 22.5566 25.0544 24.6579 23.5524L23.4949 21.9254ZM17.8499 35.9719C18.2761 38.1801 18.8313 39.6505 19.4534 40.7328C20.0773 41.8184 20.7468 42.4679 21.2589 42.9985L22.6981 41.6097C22.1613 41.0535 21.6688 40.5738 21.1874 39.7361C20.704 38.8951 20.2103 37.6481 19.8136 35.5929L17.8499 35.9719ZM31.3679 33.5443C31.1847 30.6967 30.5333 28.5886 29.374 26.7699C28.2315 24.9773 26.6358 23.5337 24.7079 21.9635L23.4449 23.5143C25.3536 25.0687 26.7299 26.3424 27.6875 27.8449C28.6285 29.3211 29.2056 31.0855 29.372 33.6727L31.3679 33.5443ZM0.000176132 36.8881C0.0638963 40.2827 0.878196 44.0375 2.9875 46.9719C5.13253 49.956 8.55505 51.9998 13.5871 51.9998V49.9998C9.17885 49.9998 6.36922 48.2499 4.61148 45.8046C2.81802 43.3095 2.05893 39.9992 1.99982 36.8506L0.000176132 36.8881ZM13.5871 51.9998C18.266 51.9998 23.0562 51.755 26.5037 49.2244C30.0554 46.6174 31.9014 41.8367 31.3679 33.5443L29.372 33.6727C29.8874 41.6846 28.0622 45.5995 25.3203 47.6121C22.4743 49.7012 18.3486 49.9998 13.5871 49.9998V51.9998Z" fill="#471D03"/>
<path d="M26.1641 47.7386C31.4087 53.1734 40.849 50.3695 42.9469 48.8256C45.0447 47.2817 47.1426 45.0292 47.1426 35.7821" stroke="#471D03" stroke-width="2"/>
</svg>
