<svg width="50" height="50" viewBox="0 0 50 50" fill="none" xmlns="http://www.w3.org/2000/svg">
<path d="M25.0001 0C18.2104 0 17.359 0.0288037 14.6925 0.150419C12.0315 0.271812 10.2142 0.69449 8.624 1.31239C6.98003 1.95128 5.58584 2.80617 4.19604 4.19597C2.80617 5.58576 1.95129 6.9801 1.31247 8.62407C0.694416 10.2142 0.271886 12.0315 0.150345 14.6925C0.0287293 17.359 0 18.2104 0 25.0001C0 31.7896 0.0287293 32.6409 0.150345 35.3075C0.271886 37.9684 0.694416 39.7858 1.31247 41.3759C1.95136 43.0199 2.80624 44.4141 4.19604 45.804C5.58591 47.1938 6.98003 48.0487 8.624 48.6876C10.2142 49.3055 12.0315 49.7281 14.6925 49.8496C17.359 49.9712 18.2104 50 25.0001 50C31.7896 50 32.6409 49.9712 35.3075 49.8496C37.9684 49.7282 39.7858 49.3055 41.3759 48.6876C43.0199 48.0487 44.4141 47.1938 45.804 45.804C47.1938 44.4141 48.0487 43.0199 48.6876 41.3759C49.3055 39.7858 49.7282 37.9684 49.8496 35.3075C49.9712 32.6409 50 31.7896 50 25.0001C50 18.2104 49.9712 17.359 49.8496 14.6925C49.7282 12.0315 49.3055 10.2142 48.6876 8.62407C48.0487 6.9801 47.1938 5.58576 45.804 4.19597C44.4141 2.80617 43.0199 1.95128 41.3759 1.31239C39.7858 0.69449 37.9684 0.271812 35.3075 0.150419C32.6409 0.0288037 31.7896 0 25.0001 0ZM25.0001 4.50447C31.6752 4.50447 32.466 4.53 35.1021 4.65028C37.5397 4.7614 38.8634 5.16867 39.7442 5.51104C40.9113 5.9646 41.744 6.50629 42.6188 7.38112C43.4937 8.25595 44.0354 9.0888 44.489 10.2557C44.8313 11.1366 45.2386 12.4604 45.3497 14.8979C45.47 17.534 45.4955 18.3248 45.4955 25C45.4955 31.6752 45.47 32.466 45.3497 35.1021C45.2386 37.5397 44.8313 38.8634 44.489 39.7442C44.0354 40.9113 43.4937 41.744 42.6188 42.6188C41.744 43.4937 40.9112 44.0354 39.7443 44.489C38.8634 44.8313 37.5396 45.2386 35.1021 45.3497C32.4664 45.47 31.6758 45.4955 25 45.4955C18.3242 45.4955 17.5337 45.47 14.8979 45.3496C12.4603 45.2386 11.1366 44.8313 10.2558 44.489C9.08873 44.0354 8.25595 43.4937 7.3812 42.6188C6.50637 41.744 5.9646 40.9112 5.51104 39.7443C5.16867 38.8634 4.76147 37.5396 4.65028 35.1021C4.53 32.466 4.50447 31.6752 4.50447 25C4.50447 18.3248 4.53 17.534 4.65028 14.8979C4.76147 12.4603 5.16867 11.1366 5.51104 10.2558C5.9646 9.08873 6.50637 8.25595 7.38112 7.3812C8.25595 6.50629 9.0888 5.9646 10.2557 5.51104C11.1366 5.16867 12.4604 4.7614 14.8979 4.65028C17.534 4.53 18.3248 4.50447 25 4.50447" fill="#471D03"/>
<path d="M25.002 33.3334C20.3995 33.3334 16.6685 29.6024 16.6685 25.0001C16.6685 20.3976 20.3995 16.6667 25.002 16.6667C29.6043 16.6667 33.3352 20.3976 33.3352 25.0001C33.3352 29.6024 29.6043 33.3334 25.002 33.3334ZM25.002 12.1622C17.9117 12.1622 12.1641 17.9098 12.1641 25.0001C12.1641 32.0902 17.9117 37.8378 25.002 37.8378C32.0921 37.8378 37.8397 32.0902 37.8397 25.0001C37.8397 17.9098 32.0921 12.1622 25.002 12.1622V12.1622ZM41.347 11.655C41.347 13.3119 40.0038 14.6549 38.3469 14.6549C36.6902 14.6549 35.347 13.3119 35.347 11.655C35.347 9.99811 36.6902 8.65491 38.3469 8.65491C40.0038 8.65491 41.347 9.99811 41.347 11.655" fill="#471D03"/>
</svg>
