<svg width="49" height="52" viewBox="0 0 49 52" fill="none" xmlns="http://www.w3.org/2000/svg">
<path d="M1 30.3479C1.00007 10.7826 10.4403 1 24.0764 1C37.7124 1 47.1528 11.8696 47.1528 30.3479" stroke="#471D03" stroke-width="2"/>
<path d="M30.3699 33.6085L31.3679 33.5443L30.3699 33.6085ZM24.0764 22.7389L24.7079 21.9635L24.1159 21.4814L23.4949 21.9254L24.0764 22.7389ZM18.8318 35.7824L19.8136 35.5929L18.8318 35.7824ZM21.2589 42.9985C21.6425 43.396 22.2755 43.4072 22.6729 43.0237C23.0704 42.6402 23.0816 42.0071 22.6981 41.6097L21.2589 42.9985ZM23.4949 21.9254C21.1382 23.6099 19.4299 25.6549 18.4622 28.0419C17.4942 30.4299 17.2944 33.094 17.8499 35.9719L19.8136 35.5929C19.3202 33.036 19.5137 30.7716 20.3157 28.7932C21.1182 26.8138 22.5566 25.0544 24.6579 23.5524L23.4949 21.9254ZM17.8499 35.9719C18.2761 38.1801 18.8313 39.6505 19.4534 40.7328C20.0773 41.8184 20.7468 42.4679 21.2589 42.9985L22.6981 41.6097C22.1613 41.0535 21.6688 40.5738 21.1874 39.7361C20.704 38.8951 20.2103 37.6481 19.8136 35.5929L17.8499 35.9719ZM31.3679 33.5443C31.1847 30.6967 30.5333 28.5886 29.374 26.7699C28.2315 24.9773 26.6358 23.5337 24.7079 21.9635L23.4449 23.5143C25.3536 25.0687 26.7299 26.3424 27.6875 27.8449C28.6285 29.3211 29.2056 31.0855 29.372 33.6727L31.3679 33.5443ZM0.000176136 36.8881C0.0638963 40.2827 0.878196 44.0375 2.9875 46.9719C5.13253 49.956 8.55505 51.9998 13.5871 51.9998V49.9998C9.17885 49.9998 6.36922 48.2499 4.61148 45.8046C2.81802 43.3095 2.05893 39.9992 1.99982 36.8506L0.000176136 36.8881ZM13.5871 51.9998C18.266 51.9998 23.0562 51.755 26.5037 49.2244C30.0554 46.6174 31.9014 41.8367 31.3679 33.5443L29.372 33.6727C29.8874 41.6846 28.0622 45.5995 25.3203 47.6121C22.4743 49.7012 18.3486 49.9998 13.5871 49.9998V51.9998Z" fill="#471D03"/>
<path d="M26.1641 47.7386C31.4087 53.1734 40.849 50.3695 42.9469 48.8256C45.0447 47.2817 47.1426 45.0292 47.1426 35.7821" stroke="#471D03" stroke-width="2"/>
</svg>
